<?xml version="1.0" standalone="no"?>
<!DOCTYPE svg PUBLIC "-//W3C//DTD SVG 20010904//EN"
 "http://www.w3.org/TR/2001/REC-SVG-20010904/DTD/svg10.dtd">
<svg version="1.0" xmlns="http://www.w3.org/2000/svg"
 width="1411.000000pt" height="1411.000000pt" viewBox="0 0 1411.000000 1411.000000"
 preserveAspectRatio="xMidYMid meet">
<metadata>
Created by potrace 1.11, written by Peter Selinger 2001-2013
</metadata>
<g transform="translate(0.000000,1411.000000) scale(0.100000,-0.100000)"
fill="#000000" stroke="none">
<path d="M10407 14104 c-1 -1 -40 -4 -87 -8 -145 -11 -305 -31 -455 -58 -33
-5 -71 -12 -85 -14 -14 -2 -36 -7 -50 -10 -14 -3 -36 -8 -50 -11 -14 -2 -101
-24 -195 -48 -418 -108 -774 -258 -1108 -467 -73 -46 -176 -116 -187 -128 -3
-3 -36 -30 -75 -61 -220 -178 -452 -459 -633 -769 -137 -235 -280 -557 -380
-855 -59 -175 -147 -491 -166 -595 -2 -14 -9 -45 -15 -70 -5 -25 -12 -56 -14
-70 -3 -14 -8 -42 -12 -62 -4 -21 -3 -38 2 -38 12 0 428 212 573 292 25 14
117 65 205 113 275 151 620 354 895 528 89 56 523 342 545 359 6 4 69 51 140
104 72 53 159 122 195 153 36 31 80 70 100 86 44 38 282 277 335 335 227 252
471 590 639 883 67 117 206 394 206 410 0 6 -315 7 -323 1z"/>
<path d="M5129 13155 c-90 -17 -159 -43 -225 -84 l-48 -29 -35 18 c-93 47
-224 63 -299 36 -92 -33 -160 -119 -181 -232 -9 -48 -7 -265 4 -314 3 -14 7
-49 10 -78 4 -44 16 -106 51 -282 12 -61 76 -275 115 -385 79 -226 244 -589
372 -820 125 -226 166 -307 199 -390 23 -57 219 -456 338 -685 75 -145 90
-183 73 -178 -7 2 -94 -9 -133 -17 -8 -1 -33 -6 -55 -9 -22 -4 -96 -18 -165
-32 -69 -14 -138 -28 -155 -31 -85 -14 -397 -100 -562 -154 -859 -283 -1524
-632 -2110 -1110 -152 -123 -223 -188 -403 -369 -191 -190 -225 -228 -439
-485 -9 -11 -30 -38 -46 -60 -17 -22 -38 -49 -47 -60 -9 -11 -55 -71 -101
-134 -224 -303 -373 -602 -486 -976 -30 -101 -76 -276 -85 -328 -2 -15 -7 -35
-10 -45 -3 -9 -7 -33 -10 -52 -3 -19 -8 -46 -11 -60 -12 -61 -15 -78 -20 -120
-3 -25 -8 -56 -10 -70 -3 -14 -7 -45 -10 -70 -9 -76 -16 -134 -20 -158 -23
-140 -26 -583 -6 -727 7 -49 14 -101 16 -115 38 -278 157 -676 298 -1000 184
-424 409 -785 706 -1135 127 -150 452 -472 626 -620 39 -33 72 -63 75 -66 5
-6 301 -245 365 -295 324 -253 529 -397 770 -538 72 -43 141 -84 155 -92 90
-54 517 -255 675 -317 405 -161 847 -284 1225 -342 19 -3 46 -7 60 -10 14 -2
50 -7 80 -11 30 -4 62 -8 70 -9 8 -1 33 -5 55 -8 22 -4 56 -9 75 -11 19 -3 87
-11 150 -20 63 -8 144 -18 180 -22 36 -3 72 -8 81 -9 26 -5 150 -16 359 -31
200 -14 817 -7 910 11 9 2 57 6 106 10 49 4 96 8 104 10 8 2 49 6 90 10 41 4
83 9 94 11 10 2 44 6 75 9 31 4 85 11 121 16 62 9 80 12 153 24 17 3 46 8 62
11 17 2 56 9 87 15 32 5 70 12 85 15 16 3 35 7 43 9 8 2 31 7 50 10 118 20
425 92 570 134 95 28 259 80 285 91 11 4 43 16 70 25 90 31 331 124 415 160
30 13 71 30 90 38 144 61 264 114 314 138 32 16 62 29 67 29 14 0 302 141 394
192 160 89 181 102 250 146 161 103 281 188 471 332 132 99 416 323 440 345 6
5 42 37 80 70 201 174 375 353 517 530 421 525 589 770 736 1070 107 217 275
626 367 890 60 171 128 457 159 670 4 22 8 51 10 65 3 14 7 50 11 80 3 30 7
66 9 79 3 13 7 61 11 105 3 45 8 92 10 106 23 187 23 795 0 965 -3 17 -7 53
-10 80 -4 28 -8 61 -10 75 -2 14 -7 48 -10 75 -9 70 -15 108 -33 205 -8 47
-17 96 -19 110 -37 230 -237 968 -309 1135 -7 17 -39 95 -70 175 -76 191 -223
504 -279 593 -7 12 -27 45 -42 74 -150 269 -342 542 -563 798 -19 22 -112 117
-205 210 -441 439 -930 743 -1486 923 -127 41 -319 90 -420 108 -14 2 -47 9
-75 14 -27 6 -68 13 -89 15 -22 3 -51 7 -65 9 -163 26 -377 40 -616 40 -174 0
-406 -10 -451 -18 -11 -2 -54 -7 -96 -11 -43 -3 -88 -8 -100 -10 -13 -2 -45
-6 -73 -10 -145 -19 -208 -29 -335 -55 -52 -11 -109 -22 -127 -25 -185 -31
-789 -215 -968 -295 -11 -5 -56 -23 -100 -41 -96 -37 -265 -110 -433 -186 -67
-31 -124 -54 -126 -52 -4 5 -109 222 -111 229 0 3 -11 28 -24 55 -37 80 -146
360 -189 486 -39 112 -66 229 -77 334 -3 28 -7 66 -10 85 -4 33 -9 89 -20 235
-2 33 -7 146 -10 250 -15 495 -15 496 -36 559 -60 179 -216 331 -452 440 -82
39 -220 85 -302 100 -16 4 -41 9 -55 12 -63 13 -298 13 -371 -1z"/>
<path d="M2049 11776 c-2 -2 -42 -6 -89 -10 -47 -4 -96 -8 -110 -10 -14 -2
-47 -7 -75 -11 -62 -8 -282 -51 -333 -64 -20 -6 -48 -12 -62 -15 -103 -19
-426 -129 -630 -213 -150 -62 -430 -201 -518 -257 l-43 -27 23 -18 c53 -41
333 -221 343 -221 2 0 39 -21 82 -46 102 -61 425 -218 578 -282 219 -91 469
-175 715 -241 82 -22 80 -21 225 -51 55 -12 109 -23 120 -26 11 -2 34 -6 50
-8 17 -3 44 -7 60 -10 17 -3 48 -7 70 -11 23 -3 50 -7 60 -9 11 -2 45 -7 75
-12 30 -4 57 -8 60 -9 3 -1 32 -5 65 -9 32 -4 68 -10 78 -12 11 -2 40 -6 66
-9 59 -8 82 -12 128 -19 36 -6 66 -10 143 -21 19 -2 64 -9 100 -14 36 -6 88
-13 115 -16 28 -4 57 -8 65 -10 8 -3 42 -7 75 -11 33 -3 62 -7 65 -9 3 -2 34
-6 70 -10 36 -4 72 -8 80 -10 9 -2 43 -7 75 -11 33 -4 62 -9 65 -9 3 -1 37 -5
75 -9 39 -5 79 -10 90 -12 11 -2 40 -7 65 -10 25 -3 56 -7 70 -9 14 -2 48 -7
75 -10 28 -4 61 -8 75 -10 14 -3 45 -7 70 -10 25 -3 59 -7 75 -9 17 -3 53 -7
80 -11 28 -3 66 -8 85 -10 19 -3 52 -7 73 -10 20 -3 52 -7 70 -9 17 -3 55 -8
82 -11 28 -3 83 -11 123 -16 41 -6 76 -9 78 -6 4 3 -92 155 -106 167 -3 3 -22
27 -41 55 -18 27 -39 56 -46 65 -142 185 -153 197 -288 355 -276 321 -593 608
-895 810 -161 107 -266 165 -463 254 -122 55 -393 131 -522 145 -27 4 -66 9
-85 12 -40 7 -524 16 -531 10z"/>
</g>
</svg>
